<svg xmlns="http://www.w3.org/2000/svg" viewBox="0 0 76.03 41.35"><polygon style="fill:#e95b26;" points="27.17 0 13.75 15.64 7.88 7.37 4.72 7.37 12.03 17.65 0 31.67 2.61 31.67 13.08 19.14 14.79 17.09 19.96 10.91 15.85 18.59 14.5 21.13 8.86 31.67 11.08 31.67 15.63 22.71 21.99 31.67 25.15 31.67 16.94 20.12 27.17 0"></polygon><path d="M31.63,32c-1.48-1-4-4.45-4-7.56V15.75H25.27v-2.4h2.36v-6h2.68v6h4v2.4h-4v8.71c0,3.11,2.05,5.13,4,7.56Z"></path><path d="M54,13.35V32H51.27v-3.2a6.68,6.68,0,0,1-3,2.66,9.7,9.7,0,0,1-10.9-1.78,9.53,9.53,0,0,1-2.74-7.08A9.25,9.25,0,0,1,44.23,13a9.65,9.65,0,0,1,4.1.9,6.52,6.52,0,0,1,2.94,2.58V13.35Zm-16.6,9.28a7,7,0,0,0,2,5.1,6.57,6.57,0,0,0,4.9,2,7,7,0,0,0,5-1.9,6.85,6.85,0,0,0,2-5.22,6.48,6.48,0,0,0-2.14-5.12,7.23,7.23,0,0,0-4.9-1.88,6.65,6.65,0,0,0-6.88,7Z"></path><path d="M58,36.71l2.28-1.32A6.35,6.35,0,0,0,66,38.71a6.71,6.71,0,0,0,5.42-2.32q1.93-2.32,1.9-7.76a6.32,6.32,0,0,1-2.88,2.78,9.06,9.06,0,0,1-4.16,1,9.25,9.25,0,0,1-9.56-9.68,9.52,9.52,0,0,1,2.74-7.08,9.7,9.7,0,0,1,10.9-1.78,6.68,6.68,0,0,1,3,2.66v-3.2H76V29.07q0,12.27-10,12.28a9.37,9.37,0,0,1-4.56-1.16A9.08,9.08,0,0,1,58,36.71Zm1.44-14a6.65,6.65,0,0,0,6.88,7,7.23,7.23,0,0,0,4.9-1.88,6.48,6.48,0,0,0,2.14-5.12,6.84,6.84,0,0,0-2-5.22,7,7,0,0,0-5-1.9,6.57,6.57,0,0,0-4.9,2A7,7,0,0,0,59.43,22.75Z"></path></svg>